<svg width="287" height="73" viewBox="0 0 287 73" fill="none" xmlns="http://www.w3.org/2000/svg">
<g filter="url(#filter0_d_5_3156)">
<rect x="8" y="6" width="270.209" height="56.8837" rx="28.4419" fill="white" shape-rendering="crispEdges"/>
<rect x="8.25" y="6.25" width="269.709" height="56.3837" rx="28.1919" stroke="black" stroke-width="0.5" shape-rendering="crispEdges"/>
<rect x="8.25" y="6.25" width="269.709" height="56.3837" rx="28.1919" stroke="black" stroke-opacity="0.2" stroke-width="0.5" shape-rendering="crispEdges"/>
<path d="M43.3145 42.5924C42.2679 42.5924 41.2785 42.406 40.3466 42.0333C39.4289 41.6605 38.6188 41.1371 37.9163 40.4633C37.2137 39.775 36.6617 38.9649 36.2602 38.033C35.8731 37.101 35.6795 36.0758 35.6795 34.9575C35.6795 33.8391 35.8731 32.8211 36.2602 31.9035C36.6617 30.9715 37.2137 30.1686 37.9163 29.4947C38.6188 28.8065 39.4289 28.276 40.3466 27.9032C41.2785 27.5304 42.2679 27.344 43.3145 27.344C44.3899 27.344 45.3792 27.5304 46.2825 27.9032C47.2001 28.2616 47.9887 28.7921 48.6483 29.4947C49.3078 30.1972 49.7953 31.0575 50.1107 32.0755L47.831 32.7853C47.4582 31.7673 46.8919 30.9643 46.1319 30.3765C45.372 29.7886 44.4544 29.4947 43.379 29.4947C42.3897 29.4947 41.5008 29.7169 40.7122 30.1614C39.9379 30.6059 39.3214 31.2368 38.8626 32.054C38.4181 32.8713 38.1959 33.8391 38.1959 34.9575C38.1959 36.0758 38.4109 37.0508 38.8411 37.8824C39.2856 38.6997 39.8949 39.3377 40.6692 39.7965C41.4434 40.241 42.3252 40.4633 43.3145 40.4633C44.3039 40.4633 45.2215 40.1765 46.0674 39.603C46.9277 39.0151 47.5586 38.2409 47.96 37.2802L50.2828 37.8179C49.9387 38.8502 49.4082 39.7248 48.6913 40.4417C47.9744 41.1443 47.1499 41.682 46.218 42.0548C45.286 42.4132 44.3182 42.5924 43.3145 42.5924ZM52.8581 42.4419V30.5915H55.3099V42.4419H52.8581ZM54.6002 36.463L55.3099 33.1939C55.5966 32.3479 56.0626 31.6812 56.7078 31.1937C57.3674 30.6919 58.113 30.441 58.9446 30.441V32.9788C58.8299 32.9501 58.7152 32.9358 58.6005 32.9358C58.5001 32.9215 58.3926 32.9143 58.2778 32.9143C57.69 32.9143 57.1738 33.0505 56.7293 33.3229C56.2849 33.581 55.9336 33.9753 55.6755 34.5058C55.4318 35.022 55.3099 35.6744 55.3099 36.463H54.6002ZM66.492 42.5924C65.5314 42.5924 64.6567 42.4419 63.8682 42.1408C63.0939 41.8397 62.4272 41.4167 61.868 40.8719C61.3232 40.327 60.9002 39.6962 60.5991 38.9793C60.3123 38.248 60.169 37.4523 60.169 36.592C60.169 35.66 60.3338 34.8213 60.6636 34.0757C61.0077 33.3158 61.4665 32.6634 62.0401 32.1185C62.6279 31.5737 63.3018 31.1579 64.0617 30.8711C64.8216 30.5844 65.6174 30.441 66.449 30.441C67.1946 30.441 67.8756 30.5414 68.4922 30.7421C69.1087 30.9428 69.6392 31.2224 70.0837 31.5809C70.5425 31.9393 70.8938 32.3551 71.1375 32.8283C71.3813 33.3014 71.5031 33.8104 71.5031 34.3553C71.5031 35.1152 71.2809 35.7461 70.8364 36.2479C70.3919 36.7497 69.8113 37.144 69.0944 37.4308C68.3775 37.7175 67.5889 37.9111 66.7286 38.0115C65.8683 38.1118 65.0152 38.1405 64.1693 38.0975C64.0259 38.0831 63.8466 38.076 63.6316 38.076C63.4165 38.0616 63.2229 38.0545 63.0509 38.0545C62.8932 38.0401 62.8071 38.033 62.7928 38.033C62.8932 38.5061 63.1154 38.9363 63.4595 39.3234C63.818 39.6962 64.2624 39.9901 64.793 40.2052C65.3235 40.4202 65.8898 40.5278 66.492 40.5278C66.9795 40.5278 67.4598 40.4417 67.933 40.2697C68.4205 40.0976 68.8649 39.8611 69.2664 39.56C69.6679 39.2589 70.0048 38.9147 70.2772 38.5276L72.1053 39.8395C71.6322 40.4704 71.0945 40.9938 70.4923 41.4096C69.9044 41.811 69.2736 42.1121 68.5997 42.3129C67.9258 42.4992 67.2232 42.5924 66.492 42.5924ZM64.3843 36.1403C64.9148 36.1403 65.4525 36.1188 65.9973 36.0758C66.5422 36.0185 67.044 35.9253 67.5028 35.7962C67.976 35.6529 68.3559 35.4593 68.6427 35.2155C68.9295 34.9718 69.0728 34.6564 69.0728 34.2692C69.0728 33.9395 68.9653 33.6455 68.7502 33.3875C68.5495 33.115 68.2627 32.9 67.89 32.7422C67.5172 32.5845 67.0799 32.5057 66.578 32.5057C65.8325 32.5057 65.1657 32.6706 64.5779 33.0003C63.99 33.3301 63.524 33.7674 63.1799 34.3123C62.8502 34.8571 62.6709 35.445 62.6423 36.0758C62.843 36.0902 63.0939 36.1045 63.395 36.1188C63.6961 36.1332 64.0259 36.1403 64.3843 36.1403ZM79.0336 42.5924C78.0013 42.5924 77.0621 42.3415 76.2162 41.8397C75.3846 41.3235 74.7179 40.6138 74.216 39.7105C73.7285 38.7929 73.4848 37.7247 73.4848 36.506C73.4848 35.2872 73.7285 34.2262 74.216 33.3229C74.7179 32.4053 75.3846 31.6956 76.2162 31.1937C77.0621 30.6919 78.0013 30.441 79.0336 30.441C80.0086 30.441 80.8617 30.6847 81.5929 31.1722C82.3242 31.6454 82.8547 32.3049 83.1845 33.1509V30.5915H85.6578V42.4419H84.5609C84.1594 42.4419 83.8297 42.3129 83.5716 42.0548C83.3135 41.7967 83.1845 41.4669 83.1845 41.0654V39.8611C82.8547 40.707 82.3242 41.3737 81.5929 41.8612C80.8617 42.3487 80.0086 42.5924 79.0336 42.5924ZM79.5928 40.4633C80.2093 40.4633 80.79 40.3127 81.3349 40.0116C81.8797 39.7105 82.3242 39.266 82.6683 38.6782C83.0124 38.076 83.1845 37.3519 83.1845 36.506C83.1845 35.6457 83.0124 34.9288 82.6683 34.3553C82.3242 33.7674 81.8797 33.3229 81.3349 33.0218C80.79 32.7207 80.2093 32.5702 79.5928 32.5702C78.9906 32.5702 78.4099 32.7207 77.8507 33.0218C77.3059 33.3229 76.8614 33.7674 76.5173 34.3553C76.1732 34.9288 76.0011 35.6457 76.0011 36.506C76.0011 37.3519 76.1732 38.076 76.5173 38.6782C76.8614 39.266 77.3059 39.7105 77.8507 40.0116C78.4099 40.3127 78.9906 40.4633 79.5928 40.4633ZM92.8569 42.5924C91.9536 42.5924 91.2008 42.2842 90.5987 41.6676C89.9965 41.0511 89.6954 40.2123 89.6954 39.1513V32.5917H87.8673V30.5915H95.0506V32.5917H92.1687V39.3019C92.1687 39.7033 92.269 39.9901 92.4698 40.1622C92.6848 40.3342 92.9142 40.4202 93.158 40.4202C93.3731 40.4202 93.5666 40.3844 93.7387 40.3127C93.9107 40.241 94.0756 40.1263 94.2333 39.9686L95.5022 41.4956C95.1008 41.8827 94.6921 42.1623 94.2763 42.3344C93.8605 42.5064 93.3874 42.5924 92.8569 42.5924ZM88.7491 31.5163V30.5915C89.0501 30.5915 89.2796 30.5055 89.4373 30.3335C89.6093 30.1614 89.6954 29.9248 89.6954 29.6237V27.6451H92.1687V29.2151C92.1687 29.4158 92.1185 29.6166 92.0181 29.8173C91.9177 30.0037 91.7744 30.1686 91.588 30.312C91.4159 30.441 91.2224 30.5342 91.0073 30.5915L88.7491 31.5163ZM103.058 42.5924C102.097 42.5924 101.223 42.4419 100.434 42.1408C99.66 41.8397 98.9933 41.4167 98.4341 40.8719C97.8892 40.327 97.4663 39.6962 97.1652 38.9793C96.8784 38.248 96.735 37.4523 96.735 36.592C96.735 35.66 96.8999 34.8213 97.2297 34.0757C97.5738 33.3158 98.0326 32.6634 98.6061 32.1185C99.194 31.5737 99.8679 31.1579 100.628 30.8711C101.388 30.5844 102.183 30.441 103.015 30.441C103.761 30.441 104.442 30.5414 105.058 30.7421C105.675 30.9428 106.205 31.2224 106.65 31.5809C107.109 31.9393 107.46 32.3551 107.704 32.8283C107.947 33.3014 108.069 33.8104 108.069 34.3553C108.069 35.1152 107.847 35.7461 107.402 36.2479C106.958 36.7497 106.377 37.144 105.66 37.4308C104.944 37.7175 104.155 37.9111 103.295 38.0115C102.434 38.1118 101.581 38.1405 100.735 38.0975C100.592 38.0831 100.413 38.076 100.198 38.076C99.9826 38.0616 99.789 38.0545 99.617 38.0545C99.4592 38.0401 99.3732 38.033 99.3589 38.033C99.4592 38.5061 99.6815 38.9363 100.026 39.3234C100.384 39.6962 100.829 39.9901 101.359 40.2052C101.89 40.4202 102.456 40.5278 103.058 40.5278C103.546 40.5278 104.026 40.4417 104.499 40.2697C104.987 40.0976 105.431 39.8611 105.832 39.56C106.234 39.2589 106.571 38.9147 106.843 38.5276L108.671 39.8395C108.198 40.4704 107.661 40.9938 107.058 41.4096C106.471 41.811 105.84 42.1121 105.166 42.3129C104.492 42.4992 103.789 42.5924 103.058 42.5924ZM100.95 36.1403C101.481 36.1403 102.019 36.1188 102.563 36.0758C103.108 36.0185 103.61 35.9253 104.069 35.7962C104.542 35.6529 104.922 35.4593 105.209 35.2155C105.496 34.9718 105.639 34.6564 105.639 34.2692C105.639 33.9395 105.531 33.6455 105.316 33.3875C105.116 33.115 104.829 32.9 104.456 32.7422C104.083 32.5845 103.646 32.5057 103.144 32.5057C102.399 32.5057 101.732 32.6706 101.144 33.0003C100.556 33.3301 100.09 33.7674 99.746 34.3123C99.4162 34.8571 99.237 35.445 99.2083 36.0758C99.4091 36.0902 99.66 36.1045 99.9611 36.1188C100.262 36.1332 100.592 36.1403 100.95 36.1403ZM124.456 42.614V30.5915H126.907V42.614C126.907 43.4456 126.778 44.1983 126.52 44.8722C126.262 45.5604 125.882 46.1554 125.38 46.6573C124.878 47.1591 124.269 47.5462 123.552 47.8186C122.835 48.0911 122.011 48.2273 121.079 48.2273C120.133 48.2273 119.294 48.0696 118.563 47.7541C117.831 47.453 117.208 46.9942 116.691 46.3777C116.175 45.7755 115.774 45.0299 115.487 44.1409L117.724 43.3452C118.025 44.2055 118.441 44.8865 118.971 45.3884C119.516 45.8902 120.204 46.1411 121.036 46.1411C122.054 46.1411 122.878 45.8328 123.509 45.2163C124.14 44.6141 124.456 43.7467 124.456 42.614ZM124.972 37.1727C124.929 38.2767 124.764 39.1728 124.477 39.8611C124.205 40.5493 123.853 41.0726 123.423 41.4311C122.993 41.7895 122.541 42.0333 122.068 42.1623C121.595 42.2913 121.143 42.3559 120.713 42.3559C119.796 42.3559 118.986 42.1695 118.283 41.7967C117.58 41.4096 117.036 40.8432 116.648 40.0976C116.261 39.3521 116.068 38.4273 116.068 37.3232V30.5915H118.498V36.8071C118.498 37.8968 118.771 38.7427 119.315 39.3449C119.86 39.9327 120.577 40.2267 121.466 40.2267C122.068 40.2267 122.592 40.069 123.036 39.7535C123.495 39.4381 123.846 39.0079 124.09 38.4631C124.334 37.9183 124.456 37.2946 124.456 36.592L124.972 37.1727ZM134.953 42.5924C133.835 42.5924 132.824 42.3415 131.92 41.8397C131.032 41.3379 130.322 40.6281 129.791 39.7105C129.275 38.7929 129.017 37.7247 129.017 36.506C129.017 35.2729 129.282 34.2047 129.813 33.3014C130.358 32.3981 131.089 31.6956 132.006 31.1937C132.924 30.6919 133.942 30.441 135.06 30.441C136.193 30.441 137.211 30.6919 138.114 31.1937C139.032 31.6956 139.756 32.3981 140.287 33.3014C140.832 34.2047 141.104 35.2729 141.104 36.506C141.104 37.7247 140.824 38.7929 140.265 39.7105C139.72 40.6281 138.982 41.3379 138.05 41.8397C137.118 42.3415 136.086 42.5924 134.953 42.5924ZM134.953 40.4633C135.569 40.4633 136.15 40.3199 136.695 40.0331C137.254 39.732 137.706 39.2875 138.05 38.6997C138.408 38.1118 138.588 37.3806 138.588 36.506C138.588 35.617 138.416 34.8858 138.071 34.3123C137.727 33.7244 137.283 33.2871 136.738 33.0003C136.208 32.7136 135.634 32.5702 135.017 32.5702C134.401 32.5702 133.827 32.7136 133.297 33.0003C132.766 33.2871 132.336 33.7244 132.006 34.3123C131.677 34.8858 131.512 35.617 131.512 36.506C131.512 37.3806 131.67 38.1118 131.985 38.6997C132.3 39.2875 132.716 39.732 133.232 40.0331C133.763 40.3199 134.336 40.4633 134.953 40.4633ZM151.808 41.0654V30.5915H154.26V42.4419H153.184C152.783 42.4419 152.453 42.3129 152.195 42.0548C151.937 41.7967 151.808 41.4669 151.808 41.0654ZM148.066 42.5924C147.148 42.5924 146.338 42.406 145.635 42.0333C144.933 41.6461 144.388 41.0798 144.001 40.3342C143.614 39.5886 143.42 38.6638 143.42 37.5598V30.5915H145.85V37.0436C145.85 38.1333 146.123 38.9793 146.668 39.5815C147.213 40.1693 147.929 40.4633 148.818 40.4633C149.421 40.4633 149.944 40.3055 150.388 39.9901C150.847 39.6747 151.199 39.2445 151.442 38.6997C151.686 38.1548 151.808 37.5311 151.808 36.8286L152.238 37.4523C152.195 38.628 151.973 39.5958 151.571 40.3557C151.184 41.1156 150.682 41.682 150.066 42.0548C149.449 42.4132 148.783 42.5924 148.066 42.5924ZM157.495 42.4419V30.5915H159.946V42.4419H157.495ZM159.237 36.463L159.946 33.1939C160.233 32.3479 160.699 31.6812 161.344 31.1937C162.004 30.6919 162.749 30.441 163.581 30.441V32.9788C163.466 32.9501 163.352 32.9358 163.237 32.9358C163.137 32.9215 163.029 32.9143 162.914 32.9143C162.327 32.9143 161.81 33.0505 161.366 33.3229C160.921 33.581 160.57 33.9753 160.312 34.5058C160.068 35.022 159.946 35.6744 159.946 36.463H159.237ZM173.871 27.4945V40.4633H178.925V42.4419H171.42V27.4945H173.871ZM181.04 42.4419V30.5915H183.492V42.4419H181.04ZM182.288 29.0215C181.772 29.0215 181.334 28.8566 180.976 28.5269C180.617 28.1971 180.438 27.7885 180.438 27.301C180.438 26.8135 180.617 26.4048 180.976 26.0751C181.334 25.731 181.772 25.5589 182.288 25.5589C182.79 25.5589 183.22 25.731 183.578 26.0751C183.951 26.4048 184.137 26.8135 184.137 27.301C184.137 27.7885 183.951 28.1971 183.578 28.5269C183.22 28.8566 182.79 29.0215 182.288 29.0215ZM190.944 42.5924C190.112 42.5924 189.366 42.4491 188.707 42.1623C188.047 41.8612 187.502 41.4597 187.072 40.9579C186.642 40.4561 186.348 39.9112 186.19 39.3234L188.535 38.8072C188.678 39.3377 188.965 39.7607 189.395 40.0761C189.84 40.3772 190.341 40.5278 190.901 40.5278C191.617 40.5278 192.155 40.3987 192.514 40.1406C192.886 39.8682 193.073 39.5313 193.073 39.1298C193.073 38.7427 192.908 38.4416 192.578 38.2265C192.248 38.0115 191.818 37.8322 191.288 37.6888C190.771 37.5455 190.219 37.3949 189.632 37.2372C189.044 37.0795 188.485 36.8716 187.954 36.6135C187.438 36.3554 187.015 36.0113 186.685 35.5812C186.355 35.1367 186.19 34.556 186.19 33.8391C186.19 33.2082 186.377 32.6347 186.75 32.1185C187.122 31.6024 187.646 31.1937 188.32 30.8926C189.008 30.5915 189.818 30.441 190.75 30.441C191.553 30.441 192.263 30.57 192.879 30.8281C193.496 31.0862 194.005 31.4518 194.406 31.925C194.808 32.3838 195.08 32.9358 195.223 33.581L192.879 34.1832C192.736 33.6384 192.485 33.2226 192.126 32.9358C191.768 32.649 191.28 32.5057 190.664 32.5057C190.004 32.5057 189.503 32.6275 189.158 32.8713C188.829 33.1007 188.664 33.4161 188.664 33.8176C188.664 34.2047 188.829 34.513 189.158 34.7424C189.488 34.9575 189.911 35.1439 190.427 35.3016C190.944 35.445 191.488 35.5955 192.062 35.7532C192.65 35.9109 193.202 36.1188 193.718 36.3769C194.234 36.6207 194.657 36.9648 194.987 37.4093C195.317 37.8394 195.482 38.4057 195.482 39.1083C195.482 39.7248 195.295 40.2984 194.922 40.8289C194.564 41.3594 194.041 41.7895 193.352 42.1193C192.678 42.4347 191.876 42.5924 190.944 42.5924ZM202.114 42.5924C201.211 42.5924 200.458 42.2842 199.856 41.6676C199.254 41.0511 198.953 40.2123 198.953 39.1513V32.5917H197.124V30.5915H204.308V32.5917H201.426V39.3019C201.426 39.7033 201.526 39.9901 201.727 40.1622C201.942 40.3342 202.171 40.4202 202.415 40.4202C202.63 40.4202 202.824 40.3844 202.996 40.3127C203.168 40.241 203.333 40.1263 203.491 39.9686L204.759 41.4956C204.358 41.8827 203.949 42.1623 203.534 42.3344C203.118 42.5064 202.645 42.5924 202.114 42.5924ZM198.006 31.5163V30.5915C198.307 30.5915 198.537 30.5055 198.694 30.3335C198.867 30.1614 198.953 29.9248 198.953 29.6237V27.6451H201.426V29.2151C201.426 29.4158 201.376 29.6166 201.275 29.8173C201.175 30.0037 201.032 30.1686 200.845 30.312C200.673 30.441 200.48 30.5342 200.264 30.5915L198.006 31.5163Z" fill="#212121"/>
<path d="M219.326 19.4419H239.268M219.326 28.4419H251.326M219.326 37.4419H245.76M219.326 46.4419H251.326" stroke="#212121" stroke-width="4"/>
</g>
<defs>
<filter id="filter0_d_5_3156" x="0" y="0" width="286.209" height="72.8838" filterUnits="userSpaceOnUse" color-interpolation-filters="sRGB">
<feFlood flood-opacity="0" result="BackgroundImageFix"/>
<feColorMatrix in="SourceAlpha" type="matrix" values="0 0 0 0 0 0 0 0 0 0 0 0 0 0 0 0 0 0 127 0" result="hardAlpha"/>
<feOffset dy="2"/>
<feGaussianBlur stdDeviation="4"/>
<feComposite in2="hardAlpha" operator="out"/>
<feColorMatrix type="matrix" values="0 0 0 0 0 0 0 0 0 0 0 0 0 0 0 0 0 0 0.1 0"/>
<feBlend mode="normal" in2="BackgroundImageFix" result="effect1_dropShadow_5_3156"/>
<feBlend mode="normal" in="SourceGraphic" in2="effect1_dropShadow_5_3156" result="shape"/>
</filter>
</defs>
</svg>
